HIERARCHY
ROOT hip
{
  OFFSET 0 0 0
  CHANNELS 6 Xposition Yposition Zposition Zrotation Yrotation Xrotation
  JOINT abdomen
  {
    OFFSET 0 20.6881 -0.73152
    CHANNELS 3 Zrotation Xrotation Yrotation
    JOINT chest
    {
      OFFSET 0 11.7043 -0.48768
      CHANNELS 3 Zrotation Xrotation Yrotation
      JOINT neck
      {
        OFFSET 0 22.1894 -2.19456
        CHANNELS 3 Zrotation Xrotation Yrotation
        JOINT head
        {
          OFFSET -0.24384 7.07133 1.2192
          CHANNELS 3 Zrotation Xrotation Yrotation
          JOINT leftEye
          {
            OFFSET 4.14528 8.04674 8.04672
            CHANNELS 3 Zrotation Xrotation Yrotation
            End Site
            {
              OFFSET 1 0 0
            }
          }
          JOINT rightEye
          {
            OFFSET -3.6576 8.04674 8.04672
            CHANNELS 3 Zrotation Xrotation Yrotation
            End Site
            {
              OFFSET 1 0 0
            }
          }
        }
      }
      JOINT rCollar
      {
        OFFSET -2.68224 19.2634 -4.8768
        CHANNELS 3 Zrotation Xrotation Yrotation
        JOINT rShldr
        {
          OFFSET -8.77824 -1.95073 1.46304
          CHANNELS 3 Zrotation Xrotation Yrotation
          JOINT rForeArm
          {
            OFFSET -28.1742 -1.7115 0.48768
            CHANNELS 3 Zrotation Xrotation Yrotation
            JOINT rHand
            {
              OFFSET -22.5879 0.773209 7.07136
              CHANNELS 3 Zrotation Xrotation Yrotation
              JOINT rThumb1
              {
                OFFSET -1.2192 -0.487915 3.41376
                CHANNELS 3 Zrotation Xrotation Yrotation
                JOINT rThumb2
                {
                  OFFSET -3.37035 -0.52449 3.41376
                  CHANNELS 3 Zrotation Xrotation Yrotation
                  End Site
                  {
                    OFFSET -1.78271 -1.18214 1.43049
                  }
                }
              }
              JOINT rIndex1
              {
                OFFSET -7.75947 0.938293 5.60832
                CHANNELS 3 Zrotation Xrotation Yrotation
                JOINT rIndex2
                {
                  OFFSET -2.54057 -0.884171 1.56538
                  CHANNELS 3 Zrotation Xrotation Yrotation
                  End Site
                  {
                    OFFSET -1.62519 -0.234802 1.16502
                  }
                }
              }
              JOINT rMid1
              {
                OFFSET -8.24714 1.18213 3.41376
                CHANNELS 3 Zrotation Xrotation Yrotation
                JOINT rMid2
                {
                  OFFSET -3.10165 -0.590103 1.0647
                  CHANNELS 3 Zrotation Xrotation Yrotation
                  End Site
                  {
                    OFFSET -2.48547 -0.328903 0.83742
                  }
                }
              }
              JOINT rRing1
              {
                OFFSET -8.82822 0.546677 1.51678
                CHANNELS 3 Zrotation Xrotation Yrotation
                JOINT rRing2
                {
                  OFFSET -2.60934 -0.819778 -0.0198488
                  CHANNELS 3 Zrotation Xrotation Yrotation
                  End Site
                  {
                    OFFSET -2.33842 -0.294052 0.168128
                  }
                }
              }
              JOINT rPinky1
              {
                OFFSET -8.27202 -0.0477905 -0.4584
                CHANNELS 3 Zrotation Xrotation Yrotation
                JOINT rPinky2
                {
                  OFFSET -1.82734 -0.647385 -0.700984
                  CHANNELS 3 Zrotation Xrotation Yrotation
                  End Site
                  {
                    OFFSET -1.69225 -0.51767 -0.607171
                  }
                }
              }
            }
          }
        }
      }
      JOINT lCollar
      {
        OFFSET 2.68224 19.2634 -4.8768
        CHANNELS 3 Zrotation Xrotation Yrotation
        JOINT lShldr
        {
          OFFSET 8.77824 -1.95073 1.46304
          CHANNELS 3 Zrotation Xrotation Yrotation
          JOINT lForeArm
          {
            OFFSET 28.1742 -1.7115 0.48768
            CHANNELS 3 Zrotation Xrotation Yrotation
            JOINT lHand
            {
              OFFSET 22.5879 0.773209 7.07136
              CHANNELS 3 Zrotation Xrotation Yrotation
              JOINT lThumb1
              {
                OFFSET 1.2192 -0.487915 3.41376
                CHANNELS 3 Zrotation Xrotation Yrotation
                JOINT lThumb2
                {
                  OFFSET 3.37035 -0.52449 3.41376
                  CHANNELS 3 Zrotation Xrotation Yrotation
                  End Site
                  {
                    OFFSET 1.78271 -1.18214 1.43049
                  }
                }
              }
              JOINT lIndex1
              {
                OFFSET 7.75947 0.938293 5.60832
                CHANNELS 3 Zrotation Xrotation Yrotation
                JOINT lIndex2
                {
                  OFFSET 2.54057 -0.884171 1.56538
                  CHANNELS 3 Zrotation Xrotation Yrotation
                  End Site
                  {
                    OFFSET 1.62519 -0.234802 1.16502
                  }
                }
              }
              JOINT lMid1
              {
                OFFSET 8.24714 1.18213 3.41376
                CHANNELS 3 Zrotation Xrotation Yrotation
                JOINT lMid2
                {
                  OFFSET 3.10165 -0.590103 1.0647
                  CHANNELS 3 Zrotation Xrotation Yrotation
                  End Site
                  {
                    OFFSET 2.48547 -0.328903 0.83742
                  }
                }
              }
              JOINT lRing1
              {
                OFFSET 8.82822 0.546677 1.51678
                CHANNELS 3 Zrotation Xrotation Yrotation
                JOINT lRing2
                {
                  OFFSET 2.60934 -0.819778 -0.0198488
                  CHANNELS 3 Zrotation Xrotation Yrotation
                  End Site
                  {
                    OFFSET 2.33842 -0.294052 0.168128
                  }
                }
              }
              JOINT lPinky1
              {
                OFFSET 8.27202 -0.0477905 -0.4584
                CHANNELS 3 Zrotation Xrotation Yrotation
                JOINT lPinky2
                {
                  OFFSET 1.82734 -0.647385 -0.700984
                  CHANNELS 3 Zrotation Xrotation Yrotation
                  End Site
                  {
                    OFFSET 1.69225 -0.51767 -0.607171
                  }
                }
              }
            }
          }
        }
      }
    }
  }
  JOINT rButtock
  {
    OFFSET -8.77824 4.35084 1.2192
    CHANNELS 3 Zrotation Xrotation Yrotation
    JOINT rThigh
    {
      OFFSET 0 -1.70687 -2.19456
      CHANNELS 3 Zrotation Xrotation Yrotation
      JOINT rShin
      {
        OFFSET 0 -36.8199 0.73152
        CHANNELS 3 Zrotation Xrotation Yrotation
        JOINT rFoot
        {
          OFFSET 0.73152 -45.1104 -5.12064
          CHANNELS 3 Zrotation Xrotation Yrotation
          End Site
          {
            OFFSET -1.1221 -3.69964 12.103
          }
        }
      }
    }
  }
  JOINT lButtock
  {
    OFFSET 8.77824 4.35084 1.2192
    CHANNELS 3 Zrotation Xrotation Yrotation
    JOINT lThigh
    {
      OFFSET 0 -1.70687 -2.19456
      CHANNELS 3 Zrotation Xrotation Yrotation
      JOINT lShin
      {
        OFFSET 0 -36.8199 0.73152
        CHANNELS 3 Zrotation Xrotation Yrotation
        JOINT lFoot
        {
          OFFSET -0.73152 -45.1104 -5.12064
          CHANNELS 3 Zrotation Xrotation Yrotation
          End Site
          {
            OFFSET 1.1221 -3.69964 12.103
          }
        }
      }
    }
  }
}
MOTION
Frames:	6
Frame Time:	0.00833333
-72.5557 85.1887 0.209401 0.0 0.0 0.0 0.55935 -0.00286671 0.0159888 0.154366 -0.00442833 0.026746 7.31899e-15 -1.59028e-15 -1.18028e-16 2.1829e-14 3.18055e-15 -3.49426e-16 -0.0 0.0 0.0 -0.0 0.0 0.0 3.62657e-15 -6.98852e-18 4.96962e-17 8.03107e-14 -3.78933e-16 1.98785e-16 1.31894e-12 -3.97768e-13 -2.54444e-14 1.50827e-11 3.67379e-13 -2.38542e-13 3.55771e-11 -6.5846e-14 -5.59778e-13 6.14455e-11 -1.145e-13 -9.74045e-13 3.55848e-11 -6.2816e-14 -5.66139e-13 7.73091 5.47488 0.417314 3.55785e-11 -6.50026e-14 -5.62958e-13 2.90554 0.965183 0.102902 3.55851e-11 -6.50026e-14 -5.61368e-13 10.2786 0.731801 0.0259123 3.55761e-11 -6.75868e-14 -5.50236e-13 2.22167 -0.733487 -0.20892 3.7287e-15 -7.37677e-18 -1.49089e-16 7.43911e-14 -2.91965e-16 -1.98785e-15 1.316e-12 3.89022e-13 -5.40694e-14 1.50776e-11 -4.2207e-13 -2.06736e-13 3.5563e-11 -6.89447e-14 -5.62958e-13 6.14225e-11 -1.20861e-13 -9.71659e-13 3.55554e-11 -6.52014e-14 -5.56597e-13 -7.73091 5.47488 -0.417314 3.5563e-11 -6.84813e-14 -5.66139e-13 -2.90554 0.965183 -0.102902 3.55516e-11 -6.80837e-14 -5.64548e-13 -10.2786 0.731801 -0.0259123 3.55624e-11 -7.03698e-14 -5.725e-13 -2.22167 -0.733487 0.20892 -2.03217e-16 0.0 -3.88251e-19 0.92301 -4.50512 -0.0770322 -0.00206841 2.60853 -0.00963072 -0.502478 1.89677 0.0959442 2.03217e-16 0.0 3.88251e-19 -0.0712301 -2.35216 0.0224554 0.00807184 -1.29119 0.0691975 0.4946 3.64342 -0.130516
-69.5544 84.3376 -4.24476 33.353 83.623 40.243 -0.668371 -3.29886 1.15927 0.772143 0.967545 0.373334 -0.372462 3.46253 -1.79156 0.306497 -2.82124 -3.36406 -0.0 0.0 0.0 -0.0 0.0 0.0 -2.2315e-14 -2.99466e-12 2.51195e-14 24.5357 4.52216 -0.154996 -4.9263 -2.39945 7.51191 0.0989899 6.98878 0.95602 3.38809e-10 5.018e-11 -3.85553e-10 5.78526e-10 8.69463e-11 -6.73423e-10 3.3882e-10 5.01806e-11 -3.85565e-10 7.73091 5.47488 0.417314 3.38811e-10 5.01781e-11 -3.85557e-10 2.90554 0.965183 0.102902 3.38816e-10 5.01778e-11 -3.85554e-10 10.2786 0.731801 0.0259123 3.38805e-10 5.01759e-11 -3.85545e-10 2.22167 -0.733487 -0.20892 -2.22468e-14 -2.99466e-12 2.48923e-14 -23.251 8.52777 -1.20319 5.02463 -2.46971 -7.63523 -0.014567 -2.67945 0.375089 -2.18782e-11 -2.19631e-10 5.67303e-10 -4.01449e-11 -3.79454e-10 9.81007e-10 -2.18846e-11 -2.19627e-10 5.6731e-10 -7.73091 5.47488 -0.417314 -2.18784e-11 -2.19629e-10 5.67302e-10 -2.90554 0.965183 -0.102902 -2.18875e-11 -2.19627e-10 5.67303e-10 -10.2786 0.731801 -0.0259123 -2.18781e-11 -2.19629e-10 5.67295e-10 -2.22167 -0.733487 0.20892 -2.03217e-16 0.0 -3.88251e-19 -0.465647 -9.13322 2.5215 0.00286647 5.90998 0.0580826 -0.757779 -1.13254 -3.55574 2.03217e-16 0.0 3.88251e-19 -0.235274 -6.18427 -0.280164 -0.00118659 1.65237 -0.00714007 0.672653 -1.42272 2.20603
-70.321 84.6908 -4.33063 27.1959 83.746 37.3453 -1.83927 -6.75661 2.38455 1.40503 2.00678 0.74118 -0.534647 7.10846 -3.70288 0.292446 -5.76979 -6.93613 -0.0 0.0 0.0 -0.0 0.0 0.0 -5.04049e-14 -6.18826e-12 5.14138e-14 50.5202 9.28839 -0.318118 -9.46846 -4.80806 15.5138 -0.0573809 14.3711 2.01524 6.56719e-10 1.00299e-10 -7.77978e-10 1.12089e-09 1.73843e-10 -1.35911e-09 6.56735e-10 1.00297e-10 -7.77996e-10 7.73091 5.47488 0.417314 6.56722e-10 1.00294e-10 -7.77984e-10 2.90554 0.965183 0.102902 6.56726e-10 1.00293e-10 -7.7798e-10 10.2786 0.731801 0.0259123 6.56712e-10 1.00292e-10 -7.77973e-10 2.22167 -0.733487 -0.20892 -5.03699e-14 -6.18826e-12 5.1156e-14 -47.4171 17.4907 -2.57932 9.61305 -4.92273 -15.7311 0.00831983 -5.50056 0.772796 -7.08991e-11 -4.45818e-10 1.16946e-09 -1.27312e-10 -7.70233e-10 2.02237e-09 -7.09042e-11 -4.45813e-10 1.16946e-09 -7.73091 5.47488 -0.417314 -7.08995e-11 -4.45814e-10 1.16946e-09 -2.90554 0.965183 -0.102902 -7.09061e-11 -4.45812e-10 1.16946e-09 -10.2786 0.731801 -0.0259123 -7.08983e-11 -4.45812e-10 1.16945e-09 -2.22167 -0.733487 0.20892 -2.03217e-16 0.0 -3.88251e-19 -1.48027 -13.9762 5.35741 -0.000490873 9.41394 0.130938 -1.44658 -4.30272 -7.43117 2.03217e-16 0.0 3.88251e-19 -0.471145 -10.2306 -0.602635 -0.00240267 4.78553 -0.0884375 1.31192 -6.7607 4.70453
-70.774 84.8857 -4.37267 22.9283 83.9391 34.8676 -2.7244 -9.87485 3.49187 1.97238 2.91105 1.06773 -0.459704 10.3466 -5.45382 -0.0776808 -8.34651 -10.189 -0.0 0.0 0.0 -0.0 0.0 0.0 -7.41983e-14 -8.98396e-12 7.5259e-14 73.6823 13.5661 -0.476844 -12.9347 -6.70449 22.6795 -0.444458 20.9421 3.04829 9.45271e-10 1.50672e-10 -1.15554e-09 1.61269e-09 2.61068e-10 -2.01832e-09 9.4529e-10 1.50667e-10 -1.15556e-09 7.73091 5.47488 0.417314 9.45276e-10 1.50664e-10 -1.15554e-09 2.90554 0.965183 0.102902 9.45279e-10 1.50663e-10 -1.15554e-09 10.2786 0.731801 0.0259123 9.45262e-10 1.50663e-10 -1.15553e-09 2.22167 -0.733487 -0.20892 -7.41978e-14 -8.98396e-12 7.49752e-14 -68.5805 25.5357 -3.95669 13.1458 -6.88399 -23.06 0.0624274 -8.03696 1.13519 -1.36761e-10 -6.58755e-10 1.70304e-09 -2.4328e-10 -1.13812e-09 2.94497e-09 -1.36765e-10 -6.5875e-10 1.70304e-09 -7.73091 5.47488 -0.417314 -1.36761e-10 -6.58749e-10 1.70304e-09 -2.90554 0.965183 -0.102902 -1.36766e-10 -6.58746e-10 1.70304e-09 -10.2786 0.731801 -0.0259123 -1.36759e-10 -6.58746e-10 1.70303e-09 -2.22167 -0.733487 0.20892 -2.03217e-16 0.0 -3.88251e-19 -1.92782 -18.247 8.02827 -0.0111811 12.5128 0.197248 -2.42628 -7.06821 -10.9411 2.03217e-16 0.0 3.88251e-19 -0.688023 -13.847 -0.90683 0.00394369 7.53946 -0.161165 2.28362 -11.4739 7.01748
-70.9218 84.8849 -4.3695 20.2386 84.2603 32.5556 -3.17647 -12.1595 4.26158 2.40172 3.47835 1.2898 -0.255343 12.6039 -6.72929 -0.63937 -10.1033 -12.5525 -0.0 0.0 0.0 -0.0 0.0 0.0 -8.72507e-14 -1.07849e-11 9.29815e-14 89.7382 16.6227 -0.614195 -15.0125 -7.80123 27.6145 -0.870621 25.5077 3.84502 1.16043e-09 2.01679e-10 -1.49594e-09 1.97806e-09 3.49114e-10 -2.61137e-09 1.16045e-09 2.01674e-10 -1.49596e-09 7.73091 5.47488 0.417314 1.16043e-09 2.01671e-10 -1.49594e-09 2.90554 0.965183 0.102902 1.16044e-09 2.0167e-10 -1.49594e-09 10.2786 0.731801 0.0259123 1.16042e-09 2.0167e-10 -1.49593e-09 2.22167 -0.733487 -0.20892 -8.7288e-14 -1.07849e-11 9.26833e-14 -83.1041 31.3323 -5.01045 15.3578 -8.10387 -28.3282 0.120814 -9.86289 1.40013 -2.44724e-10 -8.38566e-10 2.06519e-09 -4.31249e-10 -1.44878e-09 3.57063e-09 -2.44727e-10 -8.3856e-10 2.06519e-09 -7.73091 5.47488 -0.417314 -2.44724e-10 -8.38559e-10 2.06519e-09 -2.90554 0.965183 -0.102902 -2.44727e-10 -8.38556e-10 2.06519e-09 -10.2786 0.731801 -0.0259123 -2.44721e-10 -8.38555e-10 2.06518e-09 -2.22167 -0.733487 0.20892 -2.03217e-16 0.0 -3.88251e-19 -1.89542 -21.2156 10.0183 -0.0228935 14.5991 0.243791 -3.3187 -8.94435 -13.4496 2.03217e-16 0.0 3.88251e-19 -0.771093 -16.39 -1.14675 0.012028 9.34535 -0.210836 3.19639 -14.7071 8.71509
-70.9999 84.8984 -4.41009 17.4336 84.4166 30.0562 -3.15109 -13.2951 4.53396 2.66475 3.55452 1.36683 -0.0497912 13.5117 -7.28004 -1.24199 -10.7724 -13.6052 -0.0 0.0 0.0 -0.0 0.0 0.0 -8.49036e-14 -1.12559e-11 1.03875e-13 95.7931 18.0648 -0.723165 -15.6768 -8.10494 29.3538 -1.07052 27.2191 4.1665 1.30379e-09 2.6664e-10 -1.86513e-09 2.2183e-09 4.60734e-10 -3.25197e-09 1.30381e-09 2.66637e-10 -1.86515e-09 7.73091 5.47488 0.417314 1.30379e-09 2.66635e-10 -1.86513e-09 2.90554 0.965183 0.102902 1.3038e-09 2.66635e-10 -1.86513e-09 10.2786 0.731801 0.0259123 1.30378e-09 2.66635e-10 -1.86512e-09 2.22167 -0.733487 -0.20892 -8.49905e-14 -1.12562e-11 1.03585e-13 -88.8258 34.0624 -5.33008 16.2712 -8.63014 -30.6515 0.151929 -10.7055 1.52364 -4.4633e-10 -1.02346e-09 2.21974e-09 -7.79977e-10 -1.76831e-09 3.83628e-09 -4.46332e-10 -1.02345e-09 2.21974e-09 -7.73091 5.47488 -0.417314 -4.4633e-10 -1.02345e-09 2.21974e-09 -2.90554 0.965183 -0.102902 -4.46332e-10 -1.02345e-09 2.21974e-09 -10.2786 0.731801 -0.0259123 -4.46325e-10 -1.02345e-09 2.21973e-09 -2.22167 -0.733487 0.20892 -2.03217e-16 0.0 -3.88251e-19 -1.63693 -22.4618 10.8705 -0.0281656 15.2734 0.260554 -3.72535 -9.67189 -14.4754 2.03217e-16 0.0 3.88251e-19 -0.630093 -17.4241 -1.30984 0.0147781 9.80987 -0.226954 3.62329 -15.9385 9.45791
